/* XPM */
static const char * digitmeasurelarge_xpm[] = {
"32 26 5 1",
" 	c None",
".	c #000200",
"+	c #6D6D6D",
"@	c #000000",
"#	c #00FFFF",
"                                ",
"                                ",
"                                ",
"                                ",
"                                ",
"                                ",
"                                ",
"                                ",
".   +@@@                @@@+   .",
".  +@+#@                @#+@+  .",
". +@+##@                @##+@+ .",
".+@+###@@@@@@@@@@@@@@@@@@###+@+.",
".@+##########################+@.",
".@############################@.",
". @+###@@@@@@@@@@@@@@@@@@###+@ .",
". +@+##@                @##+@+ .",
".  +@+#@                @#+@+  .",
".   +@@@                @@@+   .",
"                                ",
"                                ",
"                                ",
"                                ",
"                                ",
"                                ",
"                                ",
"                                "};
