/* XPM */
static const char * digitaxissmall_xpm[] = {
"19 21 3 1",
" 	c None",
".	c #FF0000",
"+	c #000200",
"                   ",
"  ..               ",
" ....              ",
" ....              ",
"  ..               ",
"  ++               ",
"  ++               ",
"  ++               ",
"  ++               ",
"  ++               ",
"  ++               ",
"  ++               ",
"  ++               ",
"  ++               ",
"  ++               ",
"  ++               ",
"  ..           ..  ",
" ....+++++++++.... ",
" ....+++++++++.... ",
"  ..           ..  ",
"                   "};
