/* XPM */
static const char * digitmeasuresmall_xpm[] = {
"19 21 5 1",
" 	c None",
".	c #000200",
"+	c #000000",
"@	c #6D6D6D",
"#	c #00FFFF",
"                   ",
"                   ",
"                   ",
"                   ",
"                   ",
".     .     .     .",
".    +.     ..    .",
".   +@.     .@.   .",
".  +@#.     .#@.  .",
". +@##..+++++##@. .",
".+@#############@..",
". .@###########@. .",
".  .@#...++++#@.  .",
".   .@.     .@.   .",
".    ..     ..    .",
".     .     .     .",
"                   ",
"                   ",
"                   ",
"                   ",
"                   "};
