/* XPM */
static const char * digitmatchsmall_xpm[] = {
"19 21 4 1",
" 	c None",
".	c #000200",
"+	c #DAA520",
"@	c #000000",
"                   ",
" ..           ++   ",
" ..           ++   ",
" ..         ++++++ ",
" ..         ++++++ ",
" ..           ++   ",
" ..       ++  ++   ",
" ..       ++       ",
" ..     ++++++     ",
" ..     ++++++     ",
" ..       ++       ",
" ..   ++  ++       ",
" ..   ++           ",
" .. ++++++         ",
" .. ++++++         ",
" ..   ++           ",
" ..   ++           ",
" ..                ",
" ..@.............. ",
" ..@.............. ",
"                   "};
