/* XPM */
static const char * digitscalesmall_xpm[] = {
"19 21 2 1",
" 	c None",
".	c #FF00FF",
"                   ",
"                   ",
"                   ",
"                   ",
"                   ",
"                   ",
"                   ",
" ................. ",
" ................. ",
" ..             .. ",
" ..             .. ",
" ..             .. ",
" ................. ",
" ................. ",
"                   ",
"                   ",
"                   ",
"                   ",
"                   ",
"                   ",
"                   "};
