/* XPM */
static const char * digitselectlarge_xpm[] = {
"32 26 3 1",
" 	c None",
".	c #6D6D6D",
"+	c #000200",
"                                ",
"                                ",
"          .                     ",
"          +.                    ",
"          ++.                   ",
"          +++.                  ",
"          ++++.                 ",
"          +++++.                ",
"          ++++++.               ",
"          +++++++.              ",
"          ++++++++.             ",
"          +++++++++.            ",
"          ++++++++++.           ",
"          ++++++++++            ",
"          +++++++               ",
"          +++ +++.              ",
"          ++   +++              ",
"          +    +++              ",
"               .++.             ",
"                +++             ",
"                .++             ",
"                .++.            ",
"                 +++            ",
"                 .+             ",
"                                ",
"                                "};
