/* XPM */
static const char * digitsegmentlarge_xpm[] = {
"32 26 4 1",
" 	c None",
".	c #000000",
"+	c #6D6D6D",
"@	c #20FC07",
"                                ",
"  ..                            ",
"  ..                            ",
"  ..                            ",
"  ..                            ",
"  ..                            ",
"  ..               +..........  ",
"  ..           +....+@@@@@@@@.  ",
"  ..         +..+@@@@@@@@@@@@.  ",
"  ..       +..+@@@@@@+........  ",
"  ..     +..+@@@@+....+         ",
"  ..    +.+@@@@+..+             ",
"  ..   +.+@@@+..+               ",
"  ..  +.+@@@+.+                 ",
"  ..  .+@@@+.+                  ",
"  .. +.@@@+.+                   ",
"  .. .+@@+.+                    ",
"  .. .@@@.+                     ",
"  .. .@@+.                      ",
"  .. ....+                      ",
"  ..                            ",
"  ..                            ",
"  ............................  ",
"  ............................  ",
"                                ",
"                                "};
