/* XPM */
static const char * digitcurvelarge_xpm[] = {
"32 26 4 1",
" 	c None",
".	c #000000",
"+	c #0915F7",
"@	c #6D6D6D",
"                                ",
"  ..                            ",
"  ..                            ",
"  ..                      ++    ",
"  ..                      ++    ",
"  ..                    ++++++  ",
"  ..                 ...++++++  ",
"  ..          ++   ...... ++    ",
"  ..          ++ ....     ++    ",
"  ..        ++++++.             ",
"  ..        ++++++              ",
"  ..        ..++                ",
"  ..       @..++                ",
"  ..      @..                   ",
"  ..     @..                    ",
"  ..  ++...                     ",
"  ..  ++..                      ",
"  ..++++++                      ",
"  ..++++++                      ",
"  ..  ++                        ",
"  ..  ++                        ",
"  ..                            ",
"  ............................  ",
"  ............................  ",
"                                ",
"                                "};
