/* XPM */
static const char * digitscalelarge_xpm[] = {
"32 26 2 1",
" 	c None",
".	c #FF00FF",
"                                ",
"                                ",
"                                ",
"                                ",
"                                ",
"                                ",
"                                ",
"                                ",
"                                ",
" .............................. ",
" .............................. ",
" ..                          .. ",
" ..                          .. ",
" ..                          .. ",
" .............................. ",
" .............................. ",
"                                ",
"                                ",
"                                ",
"                                ",
"                                ",
"                                ",
"                                ",
"                                ",
"                                ",
"                                "};
