/* XPM */
static const char * fileexport_xpm[] = {
"13 16 5 1",
" 	c None",
".	c #000000",
"+	c #FFFFFF",
"@	c #C0C0C0",
"#	c #DCDCDC",
"             ",
"             ",
" ........    ",
" .++++@##.   ",
" .++++@++#.  ",
" .++++@....  ",
" .+++++@@@.  ",
" .++++++++.  ",
" .+.@.@.@+.  ",
" .++++++++.  ",
" .+.@.@.@+.  ",
" .++++++++.  ",
" .+.@.@.@+.  ",
" .++++++++.  ",
" ..........  ",
"             "};
