/* XPM */
static const char * fileimport_xpm[] = {
"13 16 6 1",
" 	c None",
".	c #040404",
"+	c #000000",
"@	c #FFFFFF",
"#	c #C0C0C0",
"$	c #DCDCDC",
"       ...   ",
"      .   . .",
"           ..",
"++++++++  ...",
"+@@@@#$$+    ",
"+@@@@#@@$+   ",
"+@@@@#++++   ",
"+@@@@@###+   ",
"+@@@@@@@@+   ",
"+@+#+#+#@+   ",
"+@@@@@@@@+   ",
"+@+#+#+#@+   ",
"+@@@@@@@@+   ",
"+@+#+#+#@+   ",
"+@@@@@@@@+   ",
"++++++++++   "};
