/* XPM */
static const char * filesave_xpm[] = {
"16 14 5 1",
" 	c None",
".	c #000000",
"+	c #65E0FF",
"@	c #E2E2E2",
"#	c #777777",
" .............. ",
".++++++++++++++.",
".++++++++++++++.",
".++          ++.",
".++          ++.",
".++          ++.",
".++          ++.",
".++++++++++++++.",
".++++++++++++++.",
".+++@@@@@@@#+++.",
".+++@@..@@@#+++.",
".+++@@..@@@#+++.",
" .++@@..@@@#+++.",
"  ............. "};
