/* XPM */
static const char * matchsquare_xpm[] = {
"13 13 3 1",
" 	c None",
".	c #FFFFFF",
"+	c #000000",
".............",
".............",
"..+++++++++..",
"..+++++++++..",
"..+++++++++..",
"..+++++++++..",
"..+++++++++..",
"..+++++++++..",
"..+++++++++..",
"..+++++++++..",
"..+++++++++..",
".............",
"............."};
