/* XPM */
static const char * matchdiamond_xpm[] = {
"13 13 6 1",
" 	c None",
".	c #FFFFFF",
"+	c #FEFEFE",
"@	c #EAEAEA",
"#	c #000000",
"$	c #141414",
".............",
".++++@#@++++.",
".+++@$#$@+++.",
".++@$###$@++.",
".+@$#####$@+.",
".@$#######$@.",
".###########.",
".@$#######$@.",
".+@$#####$@+.",
".++@$###$@++.",
".+++@$#$@+++.",
".++++@#@++++.",
"............."};
