/* XPM */
static const char * matchcircle_xpm[] = {
"13 13 10 1",
" 	c None",
".	c #FFFFFF",
"+	c #FEFEFE",
"@	c #E6E6E6",
"#	c #A3A3A3",
"$	c #454545",
"%	c #292929",
"&	c #000000",
"*	c #797979",
"=	c #1D1D1D",
".............",
".+@#$%&%$#@+.",
".@*=&&&&&=*@.",
".#=&&&&&&&=#.",
".$&&&&&&&&&$.",
".%&&&&&&&&&%.",
".&&&&&&&&&&&.",
".%&&&&&&&&&%.",
".$&&&&&&&&&$.",
".#=&&&&&&&=#.",
".@*=&&&&&=*@.",
".+@#$%&%$#@+.",
"............."};
