/* XPM */
static const char * whatsthis_xpm[] = {
"21 20 3 1",
" 	c None",
".	c #000000",
"+	c #000083",
"                     ",
"                     ",
"                     ",
"   .        +++++    ",
"   ..      +++ +++   ",
"   ...    +++   +++  ",
"   ....   ++     ++  ",
"   .....  ++     ++  ",
"   ......  +    +++  ",
"   .......     +++   ",
"   ........   +++    ",
"   ......... +++     ",
"   .....     +++     ",
"   .. ...            ",
"   .  ...    +++     ",
"       ...   +++     ",
"       ...           ",
"        ...          ",
"        ...          ",
"                     "};
