<?xml version="1.0" encoding="UTF-8" standalone="no"?>
<!-- Created with Inkscape (http://www.inkscape.org/) -->
<svg
   xmlns:dc="http://purl.org/dc/elements/1.1/"
   xmlns:cc="http://web.resource.org/cc/"
   xmlns:rdf="http://www.w3.org/1999/02/22-rdf-syntax-ns#"
   xmlns:svg="http://www.w3.org/2000/svg"
   xmlns="http://www.w3.org/2000/svg"
   xmlns:sodipodi="http://sodipodi.sourceforge.net/DTD/sodipodi-0.dtd"
   xmlns:inkscape="http://www.inkscape.org/namespaces/inkscape"
   width="200"
   height="200"
   id="svg2"
   sodipodi:version="0.32"
   inkscape:version="0.45.1"
   version="1.0"
   sodipodi:docbase="C:\Development\Next2Friends\Uploader\assets"
   sodipodi:docname="ImageError.svg"
   inkscape:output_extension="org.inkscape.output.svg.inkscape">
  <defs
     id="defs4" />
  <sodipodi:namedview
     id="base"
     pagecolor="#ffffff"
     bordercolor="#666666"
     borderopacity="1.0"
     gridtolerance="10000"
     guidetolerance="10"
     objecttolerance="10"
     inkscape:pageopacity="0.0"
     inkscape:pageshadow="2"
     inkscape:zoom="1"
     inkscape:cx="172.89434"
     inkscape:cy="118.52428"
     inkscape:document-units="px"
     inkscape:current-layer="layer1"
     inkscape:window-width="765"
     inkscape:window-height="575"
     inkscape:window-x="463"
     inkscape:window-y="88" />
  <metadata
     id="metadata7">
    <rdf:RDF>
      <cc:Work
         rdf:about="">
        <dc:format>image/svg+xml</dc:format>
        <dc:type
           rdf:resource="http://purl.org/dc/dcmitype/StillImage" />
      </cc:Work>
    </rdf:RDF>
  </metadata>
  <g
     inkscape:label="Layer 1"
     inkscape:groupmode="layer"
     id="layer1"
     transform="translate(-222.85715,-249.50504)">
    <path
       sodipodi:type="arc"
       style="fill:#ff5555;fill-opacity:1"
       id="path2160"
       sodipodi:cx="322.85715"
       sodipodi:cy="349.50504"
       sodipodi:rx="100"
       sodipodi:ry="100"
       d="M 422.85715 349.50504 A 100 100 0 1 1  222.85715,349.50504 A 100 100 0 1 1  422.85715 349.50504 z" />
    <path
       transform="translate(13.891327,-7.9532873)"
       style="font-size:210px;fill:#ffffff;font-family:Arial Rounded MT Bold"
       d="M 297.68652,367.60969 L 294.40527,318.49348 C 293.79002,308.92329 293.4824,302.05318 293.48242,297.88313 C 293.4824,292.20944 294.96922,287.78317 297.94287,284.60432 C 300.91648,281.42576 304.83005,279.83641 309.68359,279.83625 C 315.56246,279.83641 319.49312,281.87009 321.47559,285.93733 C 323.45796,290.00485 324.44917,295.86666 324.44922,303.52278 C 324.44917,308.03462 324.20991,312.61469 323.73145,317.26301 L 319.32227,367.81477 C 318.84371,373.83045 317.81832,378.44471 316.24609,381.65754 C 314.67379,384.87048 312.07613,386.47692 308.45313,386.47688 C 304.76169,386.47692 302.19821,384.92175 300.7627,381.81135 C 299.32712,378.70105 298.30173,373.96717 297.68652,367.60969 L 297.68652,367.60969 z M 309.06836,435.08039 C 304.89841,435.08039 301.25827,433.73029 298.14795,431.0301 C 295.03758,428.32991 293.4824,424.55306 293.48242,419.69953 C 293.4824,415.46127 294.96922,411.85532 297.94287,408.88166 C 300.91648,405.90806 304.55661,404.42124 308.86328,404.42121 C 313.16988,404.42124 316.8442,405.90806 319.88623,408.88166 C 322.92817,411.85532 324.44917,415.46127 324.44922,419.69953 C 324.44917,424.4847 322.91108,428.24446 319.83496,430.97883 C 316.75875,433.7132 313.16988,435.08039 309.06836,435.08039 L 309.06836,435.08039 z "
       id="flowRoot2189" />
  </g>
</svg>
