<?xml version="1.0" encoding="UTF-8" standalone="no"?>
<!-- Created with Inkscape (http://www.inkscape.org/) -->
<svg
   xmlns:a="http://ns.adobe.com/AdobeSVGViewerExtensions/3.0/"
   xmlns:svg="http://www.w3.org/2000/svg"
   xmlns="http://www.w3.org/2000/svg"
   xmlns:xlink="http://www.w3.org/1999/xlink"
   version="1.0"
   width="254.03389"
   height="49.386124"
   id="svg2561">
  <defs
     id="defs2563">
    <linearGradient
       x1="21.585899"
       y1="12.3604"
       x2="21.585899"
       y2="47.494099"
       id="XMLID_2_"
       gradientUnits="userSpaceOnUse">
      <stop
         style="stop-color:#b2d8f7;stop-opacity:1"
         offset="0"
         id="stop51" />
      <stop
         style="stop-color:#4689c1;stop-opacity:1"
         offset="1"
         id="stop53" />
      <a:midPointStop
         offset="0"
         style="stop-color:#B2D8F7" />
      <a:midPointStop
         offset="0.5"
         style="stop-color:#B2D8F7" />
      <a:midPointStop
         offset="1"
         style="stop-color:#4689C1" />
    </linearGradient>
    <linearGradient
       x1="21.585899"
       y1="12.3604"
       x2="21.585899"
       y2="47.494099"
       id="linearGradient2403"
       xlink:href="#XMLID_2_"
       gradientUnits="userSpaceOnUse" />
  </defs>
  <g
     transform="translate(-238.69735,-476.24055)"
     id="layer1">
    <g
       transform="translate(238.69723,476.24067)"
       id="Layer_1">
      <g
         id="g13">
        <path
           d="M 248.615,16.429 C 248.615,16.472 248.613,16.509 248.608,16.541 C 248.604,16.573 248.596,16.599 248.587,16.617 C 248.576,16.637 248.565,16.651 248.55,16.66 C 248.535,16.67 248.519,16.674 248.5,16.674 L 247.266,16.674 L 247.266,20.479 C 247.266,20.497 247.261,20.513 247.252,20.527 C 247.243,20.54 247.227,20.55 247.204,20.558 C 247.182,20.567 247.151,20.573 247.113,20.579 C 247.076,20.585 247.028,20.588 246.971,20.588 C 246.916,20.588 246.869,20.585 246.83,20.579 C 246.791,20.573 246.761,20.567 246.737,20.558 C 246.715,20.55 246.698,20.539 246.689,20.527 C 246.68,20.513 246.675,20.497 246.675,20.479 L 246.675,16.674 L 245.441,16.674 C 245.423,16.674 245.407,16.67 245.392,16.66 C 245.377,16.651 245.366,16.637 245.356,16.617 C 245.347,16.598 245.34,16.573 245.335,16.541 C 245.33,16.509 245.326,16.472 245.326,16.429 C 245.326,16.385 245.329,16.347 245.335,16.315 C 245.341,16.282 245.348,16.254 245.357,16.234 C 245.366,16.214 245.378,16.199 245.392,16.19 C 245.406,16.181 245.423,16.176 245.442,16.176 L 248.499,16.176 C 248.517,16.176 248.533,16.181 248.548,16.19 C 248.563,16.199 248.575,16.214 248.586,16.234 C 248.596,16.255 248.604,16.282 248.607,16.315 C 248.613,16.347 248.615,16.385 248.615,16.429 z "
           id="path15" />
        <path
           d="M 254.034,20.479 C 254.034,20.497 254.029,20.513 254.019,20.527 C 254.01,20.54 253.994,20.55 253.97,20.558 C 253.947,20.567 253.916,20.573 253.88,20.579 C 253.843,20.585 253.796,20.588 253.737,20.588 C 253.682,20.588 253.636,20.585 253.597,20.579 C 253.559,20.573 253.528,20.567 253.505,20.558 C 253.483,20.55 253.467,20.539 253.457,20.527 C 253.448,20.513 253.443,20.497 253.443,20.479 L 253.443,16.655 L 253.436,16.655 L 251.892,20.496 C 251.885,20.512 251.875,20.525 251.863,20.537 C 251.851,20.549 251.833,20.558 251.809,20.565 C 251.785,20.573 251.756,20.579 251.724,20.583 C 251.691,20.586 251.652,20.588 251.607,20.588 C 251.559,20.588 251.518,20.586 251.484,20.581 C 251.451,20.576 251.422,20.57 251.399,20.562 C 251.377,20.554 251.359,20.544 251.347,20.533 C 251.334,20.522 251.326,20.51 251.321,20.496 L 249.842,16.655 L 249.839,16.655 L 249.839,20.479 C 249.839,20.497 249.834,20.513 249.824,20.527 C 249.815,20.54 249.799,20.55 249.775,20.558 C 249.752,20.567 249.72,20.573 249.683,20.579 C 249.645,20.585 249.597,20.588 249.538,20.588 C 249.481,20.588 249.434,20.585 249.396,20.579 C 249.359,20.573 249.329,20.567 249.306,20.558 C 249.285,20.55 249.269,20.539 249.26,20.527 C 249.252,20.513 249.248,20.497 249.248,20.479 L 249.248,16.44 C 249.248,16.345 249.273,16.277 249.324,16.237 C 249.375,16.196 249.431,16.175 249.494,16.175 L 249.853,16.175 C 249.927,16.175 249.992,16.182 250.047,16.196 C 250.102,16.21 250.151,16.231 250.193,16.26 C 250.234,16.289 250.269,16.326 250.297,16.372 C 250.325,16.417 250.35,16.47 250.37,16.531 L 251.625,19.71 L 251.643,19.71 L 252.946,16.541 C 252.971,16.474 252.999,16.416 253.029,16.368 C 253.059,16.32 253.092,16.283 253.129,16.255 C 253.164,16.227 253.204,16.206 253.248,16.193 C 253.292,16.18 253.343,16.174 253.4,16.174 L 253.778,16.174 C 253.813,16.174 253.845,16.179 253.877,16.19 C 253.908,16.2 253.935,16.215 253.957,16.237 C 253.978,16.258 253.996,16.286 254.011,16.319 C 254.025,16.351 254.032,16.391 254.032,16.439 L 254.032,20.479 L 254.034,20.479 z "
           id="path17" />
      </g>
      <g
         id="g19">
        <path
           d="M 62.016,40.207 C 62.016,40.489 61.966,40.742 61.869,40.964 C 61.77,41.186 61.64,41.37 61.474,41.518 C 61.308,41.665 61.113,41.773 60.886,41.841 C 60.659,41.907 60.43,41.942 60.198,41.942 L 58.14,41.942 C 57.712,41.942 57.342,41.899 57.03,41.813 C 56.717,41.726 56.428,41.57 56.166,41.341 C 55.903,41.113 55.649,40.806 55.404,40.418 C 55.16,40.031 54.883,39.527 54.574,38.908 L 48.603,27.72 C 48.256,27.054 47.904,26.336 47.546,25.567 C 47.187,24.796 46.865,24.047 46.581,23.319 L 46.545,23.319 C 46.602,24.207 46.646,25.092 46.678,25.973 C 46.709,26.854 46.727,27.763 46.727,28.701 L 46.727,41.22 C 46.727,41.343 46.693,41.454 46.625,41.553 C 46.557,41.652 46.442,41.734 46.276,41.802 C 46.111,41.87 45.886,41.922 45.606,41.959 C 45.325,41.995 44.964,42.015 44.525,42.015 C 44.097,42.015 43.741,41.995 43.461,41.959 C 43.179,41.922 42.958,41.87 42.8,41.803 C 42.641,41.736 42.531,41.653 42.47,41.554 C 42.409,41.455 42.379,41.345 42.379,41.221 L 42.379,19.764 C 42.379,19.186 42.546,18.752 42.881,18.463 C 43.217,18.174 43.627,18.029 44.115,18.029 L 46.693,18.029 C 47.155,18.029 47.546,18.069 47.863,18.148 C 48.179,18.229 48.463,18.361 48.713,18.545 C 48.962,18.73 49.196,18.984 49.416,19.311 C 49.636,19.638 49.862,20.041 50.098,20.524 L 54.773,29.265 C 55.045,29.795 55.315,30.316 55.581,30.828 C 55.846,31.34 56.102,31.85 56.35,32.362 C 56.598,32.874 56.838,33.376 57.074,33.868 C 57.309,34.362 57.538,34.854 57.762,35.347 L 57.78,35.347 C 57.744,34.485 57.716,33.585 57.698,32.65 C 57.679,31.713 57.671,30.82 57.671,29.969 L 57.671,18.751 C 57.671,18.629 57.707,18.518 57.78,18.418 C 57.853,18.319 57.975,18.233 58.147,18.16 C 58.318,18.087 58.544,18.034 58.825,18.003 C 59.106,17.973 59.468,17.956 59.909,17.956 C 60.325,17.956 60.674,17.973 60.954,18.003 C 61.235,18.033 61.452,18.085 61.605,18.159 C 61.757,18.233 61.865,18.319 61.926,18.418 C 61.987,18.517 62.018,18.628 62.018,18.75 L 62.018,40.207 L 62.016,40.207 z "
           id="path21" />
        <path
           d="M 82.053,32.531 C 82.053,33.096 81.927,33.513 81.677,33.783 C 81.426,34.053 81.08,34.187 80.64,34.187 L 70.676,34.187 C 70.676,34.896 70.758,35.538 70.923,36.116 C 71.087,36.693 71.35,37.183 71.71,37.587 C 72.07,37.991 72.533,38.299 73.102,38.51 C 73.669,38.72 74.349,38.825 75.143,38.825 C 75.947,38.825 76.655,38.769 77.265,38.656 C 77.875,38.543 78.403,38.419 78.849,38.282 C 79.293,38.145 79.662,38.021 79.956,37.908 C 80.248,37.795 80.486,37.738 80.67,37.738 C 80.779,37.738 80.871,37.759 80.944,37.802 C 81.016,37.845 81.078,37.921 81.128,38.03 C 81.177,38.139 81.21,38.294 81.229,38.495 C 81.247,38.695 81.256,38.946 81.256,39.25 C 81.256,39.518 81.249,39.746 81.237,39.934 C 81.224,40.122 81.207,40.283 81.181,40.416 C 81.157,40.55 81.12,40.663 81.072,40.754 C 81.022,40.844 80.959,40.933 80.88,41.018 C 80.801,41.103 80.583,41.217 80.229,41.362 C 79.875,41.508 79.423,41.65 78.873,41.788 C 78.323,41.927 77.693,42.048 76.984,42.15 C 76.276,42.252 75.518,42.304 74.712,42.304 C 73.258,42.304 71.983,42.119 70.889,41.751 C 69.795,41.382 68.882,40.822 68.148,40.073 C 67.415,39.323 66.868,38.377 66.507,37.233 C 66.148,36.089 65.967,34.75 65.967,33.212 C 65.967,31.749 66.156,30.432 66.536,29.257 C 66.916,28.083 67.466,27.087 68.188,26.27 C 68.91,25.453 69.788,24.829 70.823,24.398 C 71.858,23.968 73.024,23.752 74.323,23.752 C 75.692,23.752 76.864,23.955 77.839,24.36 C 78.813,24.765 79.61,25.326 80.235,26.044 C 80.859,26.762 81.317,27.611 81.612,28.593 C 81.906,29.574 82.053,30.642 82.053,31.794 L 82.053,32.531 L 82.053,32.531 z M 77.56,31.217 C 77.597,29.909 77.336,28.882 76.782,28.135 C 76.228,27.388 75.37,27.014 74.211,27.014 C 73.624,27.014 73.115,27.126 72.683,27.348 C 72.249,27.571 71.889,27.87 71.603,28.246 C 71.315,28.622 71.095,29.066 70.943,29.578 C 70.79,30.09 70.702,30.637 70.677,31.217 L 77.56,31.217 z "
           id="path23" />
        <path
           d="M 99.527,40.946 C 99.624,41.154 99.671,41.326 99.665,41.461 C 99.658,41.597 99.57,41.707 99.399,41.793 C 99.226,41.879 98.963,41.937 98.611,41.969 C 98.257,41.998 97.787,42.014 97.201,42.014 C 96.651,42.014 96.208,42.004 95.873,41.987 C 95.538,41.967 95.275,41.93 95.086,41.876 C 94.897,41.822 94.756,41.754 94.665,41.674 C 94.573,41.595 94.503,41.492 94.455,41.37 L 91.411,35.532 L 88.368,41.37 C 88.318,41.492 88.251,41.595 88.166,41.674 C 88.08,41.754 87.949,41.822 87.772,41.876 C 87.594,41.931 87.346,41.968 87.029,41.987 C 86.711,42.005 86.296,42.014 85.783,42.014 C 85.245,42.014 84.817,41.998 84.5,41.969 C 84.182,41.937 83.95,41.879 83.803,41.793 C 83.656,41.707 83.58,41.597 83.574,41.461 C 83.567,41.326 83.619,41.154 83.73,40.946 L 88.269,32.862 L 84.056,25.276 C 83.945,25.055 83.887,24.868 83.881,24.714 C 83.874,24.56 83.951,24.441 84.111,24.355 C 84.269,24.269 84.524,24.208 84.873,24.17 C 85.222,24.134 85.697,24.114 86.298,24.114 C 86.837,24.114 87.27,24.125 87.595,24.142 C 87.919,24.161 88.173,24.189 88.357,24.225 C 88.541,24.261 88.676,24.32 88.762,24.4 C 88.848,24.48 88.922,24.581 88.983,24.703 L 91.918,30.191 L 94.854,24.703 C 94.89,24.606 94.946,24.519 95.019,24.446 C 95.091,24.373 95.208,24.311 95.367,24.261 C 95.525,24.212 95.743,24.176 96.019,24.152 C 96.293,24.127 96.669,24.114 97.148,24.114 C 97.685,24.114 98.117,24.127 98.441,24.152 C 98.764,24.176 98.998,24.231 99.138,24.317 C 99.278,24.403 99.346,24.523 99.339,24.675 C 99.332,24.829 99.262,25.029 99.129,25.275 L 95.025,32.731 L 99.527,40.946 z "
           id="path25" />
        <path
           d="M 112.311,39.598 C 112.311,40.142 112.278,40.56 112.209,40.85 C 112.142,41.141 112.053,41.345 111.943,41.462 C 111.832,41.58 111.67,41.685 111.456,41.777 C 111.241,41.87 110.99,41.95 110.702,42.018 C 110.415,42.085 110.102,42.137 109.765,42.175 C 109.428,42.211 109.088,42.231 108.745,42.231 C 107.825,42.231 107.029,42.114 106.355,41.881 C 105.68,41.649 105.124,41.289 104.683,40.805 C 104.242,40.321 103.917,39.71 103.709,38.974 C 103.5,38.239 103.396,37.368 103.396,36.362 L 103.396,27.956 L 101.431,27.956 C 101.198,27.956 101.02,27.812 100.898,27.522 C 100.776,27.232 100.714,26.749 100.714,26.072 C 100.714,25.716 100.73,25.414 100.76,25.167 C 100.79,24.921 100.837,24.727 100.898,24.586 C 100.96,24.444 101.035,24.342 101.128,24.281 C 101.22,24.219 101.327,24.188 101.449,24.188 L 103.395,24.188 L 103.395,20.538 C 103.395,20.415 103.429,20.306 103.497,20.208 C 103.565,20.111 103.687,20.028 103.866,19.96 C 104.045,19.894 104.285,19.845 104.587,19.814 C 104.888,19.784 105.261,19.767 105.705,19.767 C 106.16,19.767 106.539,19.784 106.841,19.814 C 107.142,19.844 107.38,19.893 107.552,19.96 C 107.724,20.028 107.848,20.111 107.922,20.208 C 107.995,20.306 108.033,20.415 108.033,20.538 L 108.033,24.188 L 111.578,24.188 C 111.699,24.188 111.806,24.219 111.897,24.281 C 111.987,24.342 112.063,24.444 112.125,24.586 C 112.186,24.727 112.231,24.921 112.262,25.167 C 112.292,25.414 112.308,25.716 112.308,26.072 C 112.308,26.749 112.247,27.232 112.125,27.522 C 112.003,27.812 111.827,27.956 111.596,27.956 L 108.033,27.956 L 108.033,35.641 C 108.033,36.535 108.172,37.204 108.453,37.65 C 108.732,38.095 109.231,38.319 109.951,38.319 C 110.194,38.319 110.414,38.298 110.608,38.255 C 110.803,38.212 110.976,38.163 111.129,38.108 C 111.28,38.053 111.408,38.004 111.513,37.961 C 111.616,37.918 111.709,37.897 111.795,37.897 C 111.868,37.897 111.939,37.918 112.005,37.961 C 112.071,38.004 112.124,38.09 112.16,38.22 C 112.196,38.349 112.23,38.526 112.261,38.747 C 112.295,38.968 112.311,39.252 112.311,39.598 z "
           id="path27" />
      </g>
      <path
         d="M 130.881,39.903 C 130.881,40.258 130.865,40.56 130.835,40.812 C 130.804,41.063 130.759,41.269 130.697,41.428 C 130.636,41.587 130.555,41.7 130.459,41.767 C 130.36,41.835 130.25,41.869 130.128,41.869 L 116.464,41.869 C 116.194,41.869 115.961,41.845 115.765,41.795 C 115.57,41.746 115.411,41.651 115.288,41.511 C 115.165,41.371 115.076,41.164 115.022,40.895 C 114.966,40.626 114.939,40.277 114.939,39.847 C 114.939,39.444 114.958,39.097 114.995,38.81 C 115.031,38.522 115.099,38.264 115.197,38.038 C 115.295,37.812 115.421,37.591 115.574,37.376 C 115.728,37.162 115.928,36.927 116.175,36.668 L 120.305,32.261 C 121.128,31.404 121.792,30.622 122.297,29.918 C 122.801,29.214 123.193,28.569 123.477,27.987 C 123.761,27.405 123.954,26.869 124.058,26.379 C 124.162,25.889 124.215,25.423 124.215,24.982 C 124.215,24.577 124.151,24.193 124.022,23.831 C 123.892,23.469 123.701,23.153 123.449,22.882 C 123.196,22.613 122.88,22.402 122.499,22.247 C 122.117,22.093 121.668,22.017 121.151,22.017 C 120.424,22.017 119.782,22.11 119.222,22.294 C 118.662,22.48 118.17,22.686 117.745,22.913 C 117.32,23.142 116.967,23.351 116.684,23.541 C 116.401,23.732 116.179,23.828 116.02,23.828 C 115.91,23.828 115.813,23.791 115.734,23.717 C 115.654,23.644 115.589,23.52 115.541,23.348 C 115.491,23.176 115.451,22.944 115.421,22.654 C 115.389,22.364 115.374,22.01 115.374,21.59 C 115.374,21.308 115.383,21.07 115.401,20.879 C 115.419,20.688 115.448,20.522 115.484,20.38 C 115.52,20.238 115.57,20.115 115.63,20.01 C 115.692,19.906 115.799,19.779 115.953,19.631 C 116.105,19.484 116.388,19.298 116.799,19.073 C 117.209,18.85 117.715,18.633 118.316,18.421 C 118.917,18.211 119.579,18.032 120.302,17.887 C 121.025,17.742 121.779,17.669 122.564,17.669 C 123.802,17.669 124.883,17.825 125.809,18.138 C 126.736,18.451 127.504,18.887 128.118,19.444 C 128.73,20.002 129.187,20.663 129.488,21.427 C 129.788,22.193 129.939,23.017 129.939,23.899 C 129.939,24.671 129.864,25.431 129.716,26.178 C 129.57,26.925 129.261,27.732 128.795,28.596 C 128.327,29.459 127.669,30.415 126.821,31.463 C 125.972,32.512 124.848,33.728 123.447,35.111 L 120.663,37.959 L 130.052,37.959 C 130.174,37.959 130.288,37.996 130.392,38.069 C 130.496,38.143 130.585,38.257 130.659,38.409 C 130.732,38.562 130.788,38.763 130.825,39.014 C 130.861,39.264 130.881,39.562 130.881,39.903 z "
         style="fill:#0066cb"
         id="path29" />
      <g
         id="g31">
        <path
           d="M 148.385,20.03 C 148.385,20.402 148.369,20.713 148.338,20.967 C 148.308,21.221 148.259,21.422 148.192,21.571 C 148.124,21.719 148.047,21.831 147.962,21.904 C 147.876,21.978 147.778,22.015 147.669,22.015 L 139.906,22.015 L 139.906,28.391 L 147.191,28.391 C 147.3,28.391 147.398,28.423 147.484,28.484 C 147.57,28.547 147.646,28.652 147.713,28.8 C 147.78,28.948 147.829,29.147 147.859,29.393 C 147.889,29.64 147.905,29.95 147.905,30.32 C 147.905,30.691 147.889,31.002 147.859,31.248 C 147.829,31.495 147.78,31.699 147.713,31.859 C 147.646,32.02 147.569,32.134 147.484,32.203 C 147.398,32.27 147.3,32.305 147.191,32.305 L 139.906,32.305 L 139.906,41.203 C 139.906,41.339 139.869,41.455 139.796,41.554 C 139.722,41.653 139.591,41.736 139.4,41.803 C 139.209,41.87 138.962,41.922 138.655,41.959 C 138.348,41.995 137.957,42.015 137.478,42.015 C 137.012,42.015 136.623,41.995 136.31,41.959 C 135.997,41.922 135.748,41.87 135.565,41.803 C 135.382,41.736 135.25,41.653 135.17,41.554 C 135.09,41.455 135.051,41.339 135.051,41.203 L 135.051,19.561 C 135.051,19.02 135.188,18.629 135.464,18.389 C 135.739,18.149 136.079,18.03 136.483,18.03 L 147.668,18.03 C 147.777,18.03 147.875,18.063 147.961,18.132 C 148.047,18.199 148.123,18.312 148.191,18.466 C 148.258,18.62 148.307,18.827 148.337,19.086 C 148.369,19.346 148.385,19.66 148.385,20.03 z "
           id="path33" />
        <path
           d="M 162.563,26.332 C 162.563,26.775 162.55,27.138 162.525,27.419 C 162.501,27.702 162.464,27.923 162.416,28.083 C 162.367,28.242 162.304,28.354 162.225,28.415 C 162.146,28.476 162.045,28.506 161.924,28.506 C 161.826,28.506 161.717,28.485 161.594,28.442 C 161.472,28.399 161.335,28.354 161.183,28.304 C 161.031,28.255 160.863,28.209 160.68,28.165 C 160.496,28.122 160.295,28.101 160.077,28.101 C 159.821,28.101 159.564,28.155 159.308,28.261 C 159.052,28.367 158.787,28.532 158.513,28.757 C 158.239,28.981 157.952,29.28 157.654,29.654 C 157.355,30.029 157.034,30.491 156.693,31.039 L 156.693,41.276 C 156.693,41.4 156.656,41.507 156.583,41.599 C 156.51,41.692 156.384,41.769 156.206,41.829 C 156.028,41.889 155.791,41.935 155.497,41.968 C 155.203,41.997 154.828,42.013 154.375,42.013 C 153.921,42.013 153.546,41.997 153.252,41.968 C 152.957,41.936 152.721,41.89 152.543,41.829 C 152.365,41.768 152.239,41.691 152.166,41.599 C 152.093,41.507 152.057,41.4 152.057,41.276 L 152.057,24.853 C 152.057,24.731 152.087,24.624 152.149,24.531 C 152.21,24.439 152.321,24.362 152.48,24.301 C 152.639,24.24 152.845,24.194 153.096,24.163 C 153.347,24.132 153.664,24.116 154.045,24.116 C 154.437,24.116 154.761,24.133 155.02,24.163 C 155.278,24.193 155.477,24.24 155.618,24.301 C 155.759,24.363 155.86,24.44 155.922,24.531 C 155.983,24.624 156.015,24.731 156.015,24.853 L 156.015,26.897 C 156.442,26.274 156.843,25.759 157.222,25.354 C 157.6,24.949 157.958,24.627 158.3,24.39 C 158.643,24.154 158.984,23.988 159.325,23.894 C 159.667,23.801 160.009,23.753 160.35,23.753 C 160.508,23.753 160.678,23.764 160.862,23.781 C 161.046,23.8 161.235,23.83 161.429,23.873 C 161.623,23.916 161.795,23.966 161.941,24.02 C 162.087,24.076 162.194,24.134 162.261,24.196 C 162.328,24.257 162.376,24.325 162.407,24.398 C 162.437,24.472 162.465,24.573 162.489,24.702 C 162.514,24.831 162.532,25.024 162.545,25.283 C 162.557,25.541 162.563,25.891 162.563,26.332 z "
           id="path35" />
        <path
           d="M 170.45,19.261 C 170.45,20.193 170.259,20.836 169.876,21.192 C 169.493,21.548 168.786,21.725 167.751,21.725 C 166.702,21.725 165.997,21.554 165.634,21.209 C 165.27,20.866 165.088,20.247 165.088,19.353 C 165.088,18.421 165.276,17.775 165.652,17.413 C 166.027,17.052 166.739,16.87 167.787,16.87 C 168.822,16.87 169.525,17.046 169.895,17.394 C 170.265,17.743 170.45,18.366 170.45,19.261 z M 170.088,41.276 C 170.088,41.4 170.051,41.507 169.977,41.599 C 169.904,41.692 169.778,41.769 169.6,41.829 C 169.422,41.889 169.186,41.935 168.892,41.968 C 168.597,41.997 168.222,42.013 167.77,42.013 C 167.316,42.013 166.941,41.997 166.647,41.968 C 166.352,41.936 166.116,41.89 165.938,41.829 C 165.76,41.768 165.634,41.691 165.561,41.599 C 165.487,41.507 165.451,41.4 165.451,41.276 L 165.451,24.889 C 165.451,24.767 165.487,24.66 165.561,24.567 C 165.634,24.475 165.76,24.396 165.938,24.328 C 166.116,24.262 166.352,24.209 166.647,24.172 C 166.941,24.136 167.316,24.116 167.77,24.116 C 168.222,24.116 168.597,24.136 168.892,24.172 C 169.186,24.209 169.422,24.262 169.6,24.328 C 169.778,24.396 169.904,24.475 169.977,24.567 C 170.051,24.66 170.088,24.767 170.088,24.889 L 170.088,41.276 z "
           id="path37" />
        <path
           d="M 189.85,32.531 C 189.85,33.096 189.724,33.513 189.474,33.783 C 189.222,34.053 188.877,34.187 188.437,34.187 L 178.473,34.187 C 178.473,34.896 178.555,35.538 178.72,36.116 C 178.884,36.693 179.147,37.183 179.507,37.587 C 179.866,37.991 180.33,38.299 180.899,38.51 C 181.465,38.72 182.146,38.825 182.94,38.825 C 183.744,38.825 184.452,38.769 185.062,38.656 C 185.672,38.543 186.2,38.419 186.646,38.282 C 187.09,38.145 187.459,38.021 187.752,37.908 C 188.045,37.795 188.283,37.738 188.467,37.738 C 188.575,37.738 188.667,37.759 188.741,37.802 C 188.813,37.845 188.874,37.921 188.924,38.03 C 188.973,38.139 189.007,38.294 189.026,38.495 C 189.044,38.695 189.052,38.946 189.052,39.25 C 189.052,39.518 189.045,39.746 189.034,39.934 C 189.021,40.122 189.004,40.283 188.978,40.416 C 188.954,40.55 188.917,40.663 188.869,40.754 C 188.819,40.844 188.756,40.933 188.677,41.018 C 188.597,41.103 188.38,41.217 188.026,41.362 C 187.672,41.508 187.219,41.65 186.67,41.788 C 186.12,41.927 185.49,42.048 184.781,42.15 C 184.072,42.252 183.315,42.304 182.509,42.304 C 181.054,42.304 179.78,42.119 178.686,41.751 C 177.592,41.382 176.678,40.822 175.945,40.073 C 175.212,39.323 174.665,38.377 174.304,37.233 C 173.943,36.089 173.764,34.75 173.764,33.212 C 173.764,31.749 173.953,30.432 174.333,29.257 C 174.713,28.083 175.263,27.087 175.985,26.27 C 176.707,25.453 177.585,24.829 178.62,24.398 C 179.654,23.968 180.821,23.752 182.119,23.752 C 183.489,23.752 184.661,23.955 185.635,24.36 C 186.609,24.765 187.407,25.326 188.032,26.044 C 188.655,26.762 189.114,27.611 189.409,28.593 C 189.703,29.574 189.85,30.642 189.85,31.794 L 189.85,32.531 L 189.85,32.531 z M 185.356,31.217 C 185.392,29.909 185.132,28.882 184.578,28.135 C 184.022,27.388 183.166,27.014 182.007,27.014 C 181.42,27.014 180.91,27.126 180.478,27.348 C 180.044,27.571 179.685,27.87 179.398,28.246 C 179.111,28.622 178.891,29.066 178.738,29.578 C 178.586,30.09 178.497,30.637 178.473,31.217 L 185.356,31.217 z "
           id="path39" />
        <path
           d="M 209.325,41.275 C 209.325,41.398 209.288,41.506 209.215,41.597 C 209.14,41.691 209.017,41.767 208.844,41.828 C 208.672,41.888 208.435,41.934 208.133,41.966 C 207.832,41.997 207.459,42.013 207.016,42.013 C 206.56,42.013 206.18,41.997 205.879,41.968 C 205.578,41.936 205.34,41.89 205.168,41.829 C 204.996,41.768 204.872,41.691 204.799,41.599 C 204.724,41.506 204.688,41.398 204.688,41.275 L 204.688,31.886 C 204.688,31.087 204.629,30.461 204.514,30.006 C 204.399,29.551 204.231,29.16 204.011,28.834 C 203.791,28.508 203.508,28.256 203.161,28.077 C 202.815,27.899 202.41,27.81 201.946,27.81 C 201.362,27.81 200.771,28.025 200.175,28.455 C 199.577,28.886 198.957,29.513 198.312,30.337 L 198.312,41.275 C 198.312,41.398 198.274,41.506 198.201,41.599 C 198.128,41.692 198.002,41.769 197.824,41.829 C 197.646,41.889 197.41,41.935 197.115,41.968 C 196.821,41.997 196.446,42.013 195.993,42.013 C 195.539,42.013 195.165,41.997 194.87,41.968 C 194.576,41.936 194.339,41.89 194.161,41.829 C 193.983,41.768 193.858,41.691 193.784,41.599 C 193.711,41.507 193.675,41.4 193.675,41.276 L 193.675,24.853 C 193.675,24.731 193.705,24.624 193.767,24.531 C 193.828,24.439 193.939,24.362 194.098,24.301 C 194.257,24.24 194.463,24.194 194.714,24.163 C 194.966,24.133 195.282,24.116 195.663,24.116 C 196.055,24.116 196.38,24.133 196.638,24.163 C 196.896,24.193 197.095,24.24 197.236,24.301 C 197.377,24.363 197.478,24.44 197.54,24.531 C 197.601,24.624 197.633,24.731 197.633,24.853 L 197.633,26.749 C 198.538,25.751 199.459,25.002 200.396,24.503 C 201.333,24.004 202.308,23.753 203.325,23.753 C 204.438,23.753 205.377,23.938 206.142,24.307 C 206.907,24.676 207.525,25.178 207.996,25.812 C 208.467,26.446 208.807,27.189 209.015,28.038 C 209.223,28.888 209.328,29.909 209.328,31.102 L 209.328,41.275 L 209.325,41.275 z "
           id="path41" />
        <path
           d="M 229.473,41.276 C 229.473,41.412 229.443,41.525 229.381,41.617 C 229.32,41.71 229.217,41.787 229.071,41.848 C 228.925,41.908 228.726,41.951 228.477,41.977 C 228.227,42 227.92,42.013 227.555,42.013 C 227.165,42.013 226.849,42 226.606,41.976 C 226.362,41.951 226.164,41.907 226.012,41.845 C 225.86,41.784 225.749,41.706 225.683,41.614 C 225.616,41.521 225.583,41.405 225.583,41.268 L 225.583,39.426 C 224.733,40.336 223.844,41.042 222.914,41.546 C 221.983,42.05 220.953,42.303 219.821,42.303 C 218.564,42.303 217.502,42.059 216.634,41.574 C 215.766,41.089 215.058,40.434 214.51,39.61 C 213.962,38.787 213.565,37.826 213.319,36.725 C 213.073,35.624 212.95,34.466 212.95,33.247 C 212.95,31.784 213.106,30.47 213.422,29.302 C 213.735,28.134 214.193,27.139 214.798,26.315 C 215.402,25.492 216.153,24.859 217.053,24.417 C 217.951,23.975 218.987,23.752 220.157,23.752 C 221.081,23.752 221.919,23.94 222.671,24.315 C 223.423,24.689 224.167,25.24 224.907,25.964 L 224.907,17.079 C 224.907,16.957 224.939,16.846 225.007,16.747 C 225.073,16.65 225.195,16.567 225.372,16.5 C 225.549,16.432 225.783,16.38 226.075,16.344 C 226.367,16.307 226.738,16.288 227.189,16.288 C 227.639,16.288 228.011,16.307 228.303,16.344 C 228.595,16.381 228.825,16.433 228.995,16.501 C 229.165,16.568 229.287,16.651 229.361,16.749 C 229.433,16.847 229.47,16.958 229.47,17.08 L 229.47,41.276 L 229.473,41.276 z M 224.908,30.263 C 224.239,29.422 223.601,28.78 222.99,28.334 C 222.378,27.89 221.738,27.666 221.072,27.666 C 220.466,27.666 219.944,27.818 219.506,28.119 C 219.067,28.422 218.715,28.825 218.449,29.33 C 218.183,29.836 217.985,30.399 217.856,31.022 C 217.726,31.644 217.661,32.283 217.661,32.935 C 217.661,33.625 217.717,34.298 217.828,34.952 C 217.939,35.606 218.121,36.187 218.375,36.699 C 218.629,37.211 218.965,37.621 219.385,37.928 C 219.805,38.235 220.336,38.39 220.979,38.39 C 221.3,38.39 221.611,38.343 221.915,38.25 C 222.219,38.157 222.527,38.007 222.843,37.796 C 223.157,37.587 223.482,37.312 223.816,36.972 C 224.148,36.633 224.513,36.215 224.91,35.72 L 224.91,30.263 L 224.908,30.263 z "
           id="path43" />
        <path
           d="M 245.707,36.605 C 245.707,37.54 245.532,38.363 245.182,39.076 C 244.832,39.79 244.339,40.386 243.701,40.865 C 243.062,41.345 242.308,41.704 241.437,41.944 C 240.565,42.183 239.621,42.303 238.602,42.303 C 237.989,42.303 237.402,42.256 236.843,42.165 C 236.285,42.072 235.784,41.957 235.343,41.816 C 234.902,41.676 234.533,41.534 234.239,41.386 C 233.944,41.239 233.729,41.102 233.594,40.973 C 233.458,40.845 233.354,40.642 233.281,40.366 C 233.208,40.09 233.172,39.682 233.172,39.141 C 233.172,38.786 233.183,38.5 233.208,38.285 C 233.232,38.07 233.269,37.899 233.318,37.77 C 233.367,37.641 233.429,37.554 233.503,37.511 C 233.577,37.468 233.67,37.447 233.78,37.447 C 233.915,37.447 234.114,37.526 234.38,37.682 C 234.645,37.838 234.973,38.011 235.367,38.199 C 235.76,38.387 236.217,38.562 236.74,38.725 C 237.263,38.888 237.856,38.969 238.521,38.969 C 238.939,38.969 239.311,38.925 239.637,38.837 C 239.963,38.749 240.244,38.623 240.485,38.46 C 240.726,38.297 240.906,38.09 241.03,37.838 C 241.152,37.587 241.215,37.298 241.215,36.973 C 241.215,36.604 241.101,36.287 240.873,36.023 C 240.644,35.759 240.342,35.529 239.966,35.333 C 239.59,35.136 239.164,34.951 238.69,34.779 C 238.216,34.606 237.729,34.417 237.23,34.207 C 236.729,33.999 236.243,33.759 235.768,33.488 C 235.293,33.218 234.868,32.886 234.492,32.493 C 234.116,32.098 233.814,31.626 233.587,31.073 C 233.358,30.52 233.245,29.856 233.245,29.082 C 233.245,28.295 233.397,27.572 233.704,26.915 C 234.012,26.258 234.453,25.695 235.03,25.227 C 235.606,24.76 236.308,24.397 237.137,24.139 C 237.964,23.881 238.894,23.751 239.925,23.751 C 240.441,23.751 240.941,23.789 241.426,23.863 C 241.91,23.938 242.348,24.032 242.741,24.144 C 243.133,24.255 243.465,24.376 243.734,24.507 C 244.003,24.638 244.197,24.75 244.313,24.843 C 244.429,24.936 244.512,25.029 244.562,25.12 C 244.611,25.212 244.647,25.322 244.672,25.45 C 244.696,25.578 244.718,25.736 244.736,25.926 C 244.754,26.115 244.764,26.35 244.764,26.631 C 244.764,26.961 244.753,27.23 244.736,27.437 C 244.717,27.646 244.687,27.81 244.644,27.932 C 244.601,28.054 244.541,28.137 244.468,28.18 C 244.395,28.223 244.309,28.243 244.21,28.243 C 244.099,28.243 243.927,28.179 243.693,28.047 C 243.46,27.917 243.168,27.776 242.817,27.627 C 242.465,27.478 242.06,27.338 241.599,27.207 C 241.138,27.077 240.614,27.011 240.023,27.011 C 239.605,27.011 239.242,27.056 238.935,27.143 C 238.627,27.23 238.376,27.355 238.179,27.515 C 237.982,27.677 237.834,27.868 237.737,28.084 C 237.638,28.302 237.59,28.535 237.59,28.784 C 237.59,29.166 237.706,29.485 237.941,29.743 C 238.174,30.001 238.482,30.228 238.865,30.426 C 239.248,30.624 239.682,30.807 240.17,30.979 C 240.656,31.151 241.149,31.339 241.649,31.542 C 242.147,31.746 242.641,31.982 243.128,32.252 C 243.615,32.523 244.049,32.855 244.432,33.247 C 244.815,33.642 245.122,34.111 245.357,34.658 C 245.59,35.208 245.707,35.855 245.707,36.605 z "
           id="path45" />
      </g>
      <g
         id="Layer_2">
        <path
           d="M 32.552,46.418 C 32.552,48.057 31.223,49.386 29.584,49.386 L 13.588,49.386 C 11.949,49.386 10.62,48.057 10.62,46.418 L 10.62,13.438 C 10.62,11.798 11.949,10.469 13.588,10.469 L 29.584,10.469 C 31.223,10.469 32.552,11.798 32.552,13.438 L 32.552,46.418 z "
           style="fill:#0066cb"
           id="path48" />
        <linearGradient
           x1="21.585899"
           y1="12.3604"
           x2="21.585899"
           y2="47.494099"
           id="linearGradient2593"
           gradientUnits="userSpaceOnUse">
          <stop
             style="stop-color:#b2d8f7;stop-opacity:1"
             offset="0"
             id="stop2595" />
          <stop
             style="stop-color:#4689c1;stop-opacity:1"
             offset="1"
             id="stop2597" />
          <a:midPointStop
             offset="0"
             style="stop-color:#B2D8F7" />
          <a:midPointStop
             offset="0.5"
             style="stop-color:#B2D8F7" />
          <a:midPointStop
             offset="1"
             style="stop-color:#4689C1" />
        </linearGradient>
        <path
           d="M 31.067,44.814 C 31.067,46.293 29.919,47.494 28.501,47.494 L 14.671,47.494 C 13.253,47.494 12.105,46.294 12.105,44.814 L 12.105,15.04 C 12.105,13.561 13.253,12.36 14.671,12.36 L 28.501,12.36 C 29.919,12.36 31.067,13.56 31.067,15.04 L 31.067,44.814 L 31.067,44.814 z "
           style="fill:url(#linearGradient2403)"
           id="path55" />
        <rect
           width="16.264"
           height="19.294001"
           x="13.454"
           y="14.553"
           style="fill:#ffffff"
           id="rect57" />
        <g
           id="Layer_3">
          <path
             d="M 17.783,37.138 C 17.783,37.684 17.34,38.127 16.794,38.127 L 14.443,38.127 C 13.897,38.127 13.454,37.684 13.454,37.138 L 13.454,37.138 C 13.454,36.591 13.897,36.149 14.443,36.149 L 16.794,36.149 C 17.34,36.148 17.783,36.591 17.783,37.138 L 17.783,37.138 z "
             style="fill:#ffffff"
             id="path60" />
          <path
             d="M 23.75,37.138 C 23.75,37.684 23.308,38.127 22.761,38.127 L 20.411,38.127 C 19.864,38.127 19.422,37.684 19.422,37.138 L 19.422,37.138 C 19.422,36.591 19.864,36.149 20.411,36.149 L 22.761,36.149 C 23.308,36.148 23.75,36.591 23.75,37.138 L 23.75,37.138 z "
             style="fill:#ffffff"
             id="path62" />
          <path
             d="M 29.718,37.138 C 29.718,37.684 29.275,38.127 28.729,38.127 L 26.378,38.127 C 25.832,38.127 25.389,37.684 25.389,37.138 L 25.389,37.138 C 25.389,36.591 25.832,36.149 26.378,36.149 L 28.729,36.149 C 29.274,36.148 29.718,36.591 29.718,37.138 L 29.718,37.138 z "
             style="fill:#ffffff"
             id="path64" />
          <path
             d="M 17.783,40.848 C 17.783,41.395 17.34,41.837 16.794,41.837 L 14.443,41.837 C 13.897,41.837 13.454,41.395 13.454,40.848 L 13.454,40.848 C 13.454,40.302 13.897,39.859 14.443,39.859 L 16.794,39.859 C 17.34,39.858 17.783,40.302 17.783,40.848 L 17.783,40.848 z "
             style="fill:#ffffff"
             id="path66" />
          <path
             d="M 23.75,40.848 C 23.75,41.395 23.308,41.837 22.761,41.837 L 20.411,41.837 C 19.864,41.837 19.422,41.395 19.422,40.848 L 19.422,40.848 C 19.422,40.302 19.864,39.859 20.411,39.859 L 22.761,39.859 C 23.308,39.858 23.75,40.302 23.75,40.848 L 23.75,40.848 z "
             style="fill:#ffffff"
             id="path68" />
          <path
             d="M 29.718,40.848 C 29.718,41.395 29.275,41.837 28.729,41.837 L 26.378,41.837 C 25.832,41.837 25.389,41.395 25.389,40.848 L 25.389,40.848 C 25.389,40.302 25.832,39.859 26.378,39.859 L 28.729,39.859 C 29.274,39.858 29.718,40.302 29.718,40.848 L 29.718,40.848 z "
             style="fill:#ffffff"
             id="path70" />
          <path
             d="M 17.783,44.558 C 17.783,45.105 17.34,45.548 16.794,45.548 L 14.443,45.548 C 13.897,45.548 13.454,45.105 13.454,44.558 L 13.454,44.558 C 13.454,44.012 13.897,43.569 14.443,43.569 L 16.794,43.569 C 17.34,43.568 17.783,44.012 17.783,44.558 L 17.783,44.558 z "
             style="fill:#ffffff"
             id="path72" />
          <path
             d="M 23.75,44.558 C 23.75,45.105 23.308,45.548 22.761,45.548 L 20.411,45.548 C 19.864,45.548 19.422,45.105 19.422,44.558 L 19.422,44.558 C 19.422,44.012 19.864,43.569 20.411,43.569 L 22.761,43.569 C 23.308,43.568 23.75,44.012 23.75,44.558 L 23.75,44.558 z "
             style="fill:#ffffff"
             id="path74" />
          <path
             d="M 29.718,44.558 C 29.718,45.105 29.275,45.548 28.729,45.548 L 26.378,45.548 C 25.832,45.548 25.389,45.105 25.389,44.558 L 25.389,44.558 C 25.389,44.012 25.832,43.569 26.378,43.569 L 28.729,43.569 C 29.274,43.568 29.718,44.012 29.718,44.558 L 29.718,44.558 z "
             style="fill:#ffffff"
             id="path76" />
        </g>
      </g>
      <path
         d="M 15.363,7.859 C 15.363,7.859 6.979,5.578 7.487,14.776 C 7.723,6.26 15.363,7.859 15.363,7.859 z "
         style="fill:#0066cb"
         id="path78" />
      <path
         d="M 15.735,4.329 C 15.735,4.329 3.178,0.913 3.939,14.689 C 4.292,1.934 15.735,4.329 15.735,4.329 z "
         style="fill:#0066cb"
         id="path80" />
      <path
         d="M 16.707,0.53 C 16.707,0.53 -1.027,-4.294 0.047,15.162 C 0.544,-2.854 16.707,0.53 16.707,0.53 z "
         style="fill:#0066cb"
         id="path82" />
    </g>
  </g>
</svg>
