<?xml version="1.0" encoding="UTF-8" standalone="no"?>
<!-- Created with Inkscape (http://www.inkscape.org/) -->
<svg
   xmlns:a="http://ns.adobe.com/AdobeSVGViewerExtensions/3.0/"
   xmlns:svg="http://www.w3.org/2000/svg"
   xmlns="http://www.w3.org/2000/svg"
   xmlns:xlink="http://www.w3.org/1999/xlink"
   version="1.0"
   width="43.049999"
   height="59.889999"
   id="svg2354">
  <defs
     id="defs2356">
    <linearGradient
       x1="21.585899"
       y1="12.3604"
       x2="21.585899"
       y2="47.494099"
       id="XMLID_2_"
       gradientUnits="userSpaceOnUse">
      <stop
         style="stop-color:#b2d8f7;stop-opacity:1"
         offset="0"
         id="stop51" />
      <stop
         style="stop-color:#4689c1;stop-opacity:1"
         offset="1"
         id="stop53" />
      <a:midPointStop
         style="stop-color:#B2D8F7"
         offset="0" />
      <a:midPointStop
         style="stop-color:#B2D8F7"
         offset="0.5" />
      <a:midPointStop
         style="stop-color:#4689C1"
         offset="1" />
    </linearGradient>
    <linearGradient
       x1="21.585899"
       y1="12.3604"
       x2="21.585899"
       y2="47.494099"
       id="linearGradient2466"
       xlink:href="#XMLID_2_"
       gradientUnits="userSpaceOnUse" />
  </defs>
  <g
     transform="translate(-335.14482,-470.52236)"
     id="layer1">
    <g
       transform="translate(335.15251,470.52639)"
       id="Layer_2">
      <path
         d="M 32.552,46.418 C 32.552,48.057 31.223,49.386 29.584,49.386 L 13.588,49.386 C 11.949,49.386 10.62,48.057 10.62,46.418 L 10.62,13.438 C 10.62,11.798 11.949,10.469 13.588,10.469 L 29.584,10.469 C 31.223,10.469 32.552,11.798 32.552,13.438 L 32.552,46.418 z "
         style="fill:#0066cb"
         id="path48" />
      <linearGradient
         x1="21.585899"
         y1="12.3604"
         x2="21.585899"
         y2="47.494099"
         id="linearGradient2445"
         gradientUnits="userSpaceOnUse">
        <stop
           style="stop-color:#b2d8f7;stop-opacity:1"
           offset="0"
           id="stop2447" />
        <stop
           style="stop-color:#4689c1;stop-opacity:1"
           offset="1"
           id="stop2449" />
        <a:midPointStop
           style="stop-color:#B2D8F7"
           offset="0" />
        <a:midPointStop
           style="stop-color:#B2D8F7"
           offset="0.5" />
        <a:midPointStop
           style="stop-color:#4689C1"
           offset="1" />
      </linearGradient>
      <path
         d="M 31.067,44.814 C 31.067,46.293 29.919,47.494 28.501,47.494 L 14.671,47.494 C 13.253,47.494 12.105,46.294 12.105,44.814 L 12.105,15.04 C 12.105,13.561 13.253,12.36 14.671,12.36 L 28.501,12.36 C 29.919,12.36 31.067,13.56 31.067,15.04 L 31.067,44.814 L 31.067,44.814 z "
         style="fill:url(#linearGradient2466)"
         id="path55" />
      <rect
         width="16.264"
         height="19.294001"
         x="13.454"
         y="14.553"
         style="fill:#ffffff"
         id="rect57" />
      <g
         id="Layer_3">
        <path
           d="M 17.783,37.138 C 17.783,37.684 17.34,38.127 16.794,38.127 L 14.443,38.127 C 13.897,38.127 13.454,37.684 13.454,37.138 L 13.454,37.138 C 13.454,36.591 13.897,36.149 14.443,36.149 L 16.794,36.149 C 17.34,36.148 17.783,36.591 17.783,37.138 L 17.783,37.138 z "
           style="fill:#ffffff"
           id="path60" />
        <path
           d="M 23.75,37.138 C 23.75,37.684 23.308,38.127 22.761,38.127 L 20.411,38.127 C 19.864,38.127 19.422,37.684 19.422,37.138 L 19.422,37.138 C 19.422,36.591 19.864,36.149 20.411,36.149 L 22.761,36.149 C 23.308,36.148 23.75,36.591 23.75,37.138 L 23.75,37.138 z "
           style="fill:#ffffff"
           id="path62" />
        <path
           d="M 29.718,37.138 C 29.718,37.684 29.275,38.127 28.729,38.127 L 26.378,38.127 C 25.832,38.127 25.389,37.684 25.389,37.138 L 25.389,37.138 C 25.389,36.591 25.832,36.149 26.378,36.149 L 28.729,36.149 C 29.274,36.148 29.718,36.591 29.718,37.138 L 29.718,37.138 z "
           style="fill:#ffffff"
           id="path64" />
        <path
           d="M 17.783,40.848 C 17.783,41.395 17.34,41.837 16.794,41.837 L 14.443,41.837 C 13.897,41.837 13.454,41.395 13.454,40.848 L 13.454,40.848 C 13.454,40.302 13.897,39.859 14.443,39.859 L 16.794,39.859 C 17.34,39.858 17.783,40.302 17.783,40.848 L 17.783,40.848 z "
           style="fill:#ffffff"
           id="path66" />
        <path
           d="M 23.75,40.848 C 23.75,41.395 23.308,41.837 22.761,41.837 L 20.411,41.837 C 19.864,41.837 19.422,41.395 19.422,40.848 L 19.422,40.848 C 19.422,40.302 19.864,39.859 20.411,39.859 L 22.761,39.859 C 23.308,39.858 23.75,40.302 23.75,40.848 L 23.75,40.848 z "
           style="fill:#ffffff"
           id="path68" />
        <path
           d="M 29.718,40.848 C 29.718,41.395 29.275,41.837 28.729,41.837 L 26.378,41.837 C 25.832,41.837 25.389,41.395 25.389,40.848 L 25.389,40.848 C 25.389,40.302 25.832,39.859 26.378,39.859 L 28.729,39.859 C 29.274,39.858 29.718,40.302 29.718,40.848 L 29.718,40.848 z "
           style="fill:#ffffff"
           id="path70" />
        <path
           d="M 17.783,44.558 C 17.783,45.105 17.34,45.548 16.794,45.548 L 14.443,45.548 C 13.897,45.548 13.454,45.105 13.454,44.558 L 13.454,44.558 C 13.454,44.012 13.897,43.569 14.443,43.569 L 16.794,43.569 C 17.34,43.568 17.783,44.012 17.783,44.558 L 17.783,44.558 z "
           style="fill:#ffffff"
           id="path72" />
        <path
           d="M 23.75,44.558 C 23.75,45.105 23.308,45.548 22.761,45.548 L 20.411,45.548 C 19.864,45.548 19.422,45.105 19.422,44.558 L 19.422,44.558 C 19.422,44.012 19.864,43.569 20.411,43.569 L 22.761,43.569 C 23.308,43.568 23.75,44.012 23.75,44.558 L 23.75,44.558 z "
           style="fill:#ffffff"
           id="path74" />
        <path
           d="M 29.718,44.558 C 29.718,45.105 29.275,45.548 28.729,45.548 L 26.378,45.548 C 25.832,45.548 25.389,45.105 25.389,44.558 L 25.389,44.558 C 25.389,44.012 25.832,43.569 26.378,43.569 L 28.729,43.569 C 29.274,43.568 29.718,44.012 29.718,44.558 L 29.718,44.558 z "
           style="fill:#ffffff"
           id="path76" />
      </g>
    </g>
    <path
       d="M 350.51551,478.38539 C 350.51551,478.38539 342.13151,476.10439 342.63951,485.30239 C 342.87551,476.78639 350.51551,478.38539 350.51551,478.38539 z "
       style="fill:#0066cb"
       id="path78" />
    <path
       d="M 350.88751,474.85539 C 350.88751,474.85539 338.33051,471.43939 339.09151,485.21539 C 339.44451,472.46039 350.88751,474.85539 350.88751,474.85539 z "
       style="fill:#0066cb"
       id="path80" />
    <path
       d="M 351.85951,471.05639 C 351.85951,471.05639 334.12551,466.23239 335.19951,485.68839 C 335.69651,467.67239 351.85951,471.05639 351.85951,471.05639 z "
       style="fill:#0066cb"
       id="path82" />
  </g>
  <rect
     width="0.058593635"
     height="0.058593873"
     x="43"
     y="59.835312"
     style="opacity:1;fill:#ffffff;fill-opacity:1;stroke:#ffffff;stroke-width:0.001;stroke-miterlimit:4;stroke-dasharray:none;stroke-opacity:1"
     id="rect6227" />
</svg>
